<?xml version="1.0" encoding="UTF-8" standalone="no"?>
<!-- Created with Inkscape (http://www.inkscape.org/) -->

<svg
   xmlns:dc="http://purl.org/dc/elements/1.1/"
   xmlns:cc="http://creativecommons.org/ns#"
   xmlns:rdf="http://www.w3.org/1999/02/22-rdf-syntax-ns#"
   xmlns:svg="http://www.w3.org/2000/svg"
   xmlns="http://www.w3.org/2000/svg"
   xmlns:xlink="http://www.w3.org/1999/xlink"
   xmlns:sodipodi="http://sodipodi.sourceforge.net/DTD/sodipodi-0.dtd"
   xmlns:inkscape="http://www.inkscape.org/namespaces/inkscape"
   version="1.0"
   width="308"
   height="182.19084"
   id="svg2"
   sodipodi:version="0.32"
   inkscape:version="0.47pre4 r22446"
   sodipodi:docname="res.svg"
   inkscape:output_extension="org.inkscape.output.svg.inkscape">
  <metadata
     id="metadata46">
    <rdf:RDF>
      <cc:Work
         rdf:about="">
        <dc:format>image/svg+xml</dc:format>
        <dc:type
           rdf:resource="http://purl.org/dc/dcmitype/StillImage" />
      </cc:Work>
    </rdf:RDF>
  </metadata>
  <sodipodi:namedview
     inkscape:window-height="975"
     inkscape:window-width="1394"
     inkscape:pageshadow="2"
     inkscape:pageopacity="0.0"
     guidetolerance="10.0"
     gridtolerance="10.0"
     objecttolerance="10.0"
     borderopacity="1.0"
     bordercolor="#666666"
     pagecolor="#ffffff"
     id="base"
     showgrid="false"
     inkscape:zoom="1"
     inkscape:cx="418.17329"
     inkscape:cy="5.0267025"
     inkscape:window-x="0"
     inkscape:window-y="25"
     inkscape:current-layer="svg2"
     inkscape:window-maximized="0" />
  <defs
     id="defs4">
    <inkscape:perspective
       sodipodi:type="inkscape:persp3d"
       inkscape:vp_x="0 : 122.92 : 1"
       inkscape:vp_y="0 : 1000 : 0"
       inkscape:vp_z="562 : 122.92 : 1"
       inkscape:persp3d-origin="281 : 81.946665 : 1"
       id="perspective48" />
    <inkscape:perspective
       id="perspective5406"
       inkscape:persp3d-origin="0.5 : 0.33333333 : 1"
       inkscape:vp_z="1 : 0.5 : 1"
       inkscape:vp_y="0 : 1000 : 0"
       inkscape:vp_x="0 : 0.5 : 1"
       sodipodi:type="inkscape:persp3d" />
    <linearGradient
       inkscape:collect="always"
       xlink:href="#linearGradient4279-4"
       id="linearGradient5117"
       gradientUnits="userSpaceOnUse"
       x1="20.991968"
       y1="158.44261"
       x2="-187.24847"
       y2="115.72017" />
    <linearGradient
       inkscape:collect="always"
       id="linearGradient4279-4">
      <stop
         style="stop-color:#000000;stop-opacity:0.651"
         offset="0"
         id="stop4281-3" />
      <stop
         style="stop-color:#000000;stop-opacity:0.08653846"
         offset="1"
         id="stop4283-2" />
    </linearGradient>
    <linearGradient
       inkscape:collect="always"
       xlink:href="#linearGradient5125"
       id="linearGradient5119"
       gradientUnits="userSpaceOnUse"
       x1="1072.7375"
       y1="1165.5472"
       x2="1265.1232"
       y2="1168.2797" />
    <linearGradient
       id="linearGradient5125"
       inkscape:collect="always">
      <stop
         id="stop5127"
         offset="0"
         style="stop-color:#e7733b;stop-opacity:1" />
      <stop
         id="stop5129"
         offset="1"
         style="stop-color:#c81f20;stop-opacity:1" />
    </linearGradient>
    <inkscape:perspective
       id="perspective3634"
       inkscape:persp3d-origin="0.5 : 0.33333333 : 1"
       inkscape:vp_z="1 : 0.5 : 1"
       inkscape:vp_y="0 : 1000 : 0"
       inkscape:vp_x="0 : 0.5 : 1"
       sodipodi:type="inkscape:persp3d" />
    <linearGradient
       inkscape:collect="always"
       xlink:href="#linearGradient4279-4-5"
       id="linearGradient5117-0"
       gradientUnits="userSpaceOnUse"
       x1="20.991968"
       y1="158.44261"
       x2="-187.24847"
       y2="115.72017" />
    <linearGradient
       inkscape:collect="always"
       id="linearGradient4279-4-5">
      <stop
         style="stop-color:#000000;stop-opacity:0.651"
         offset="0"
         id="stop4281-3-7" />
      <stop
         style="stop-color:#000000;stop-opacity:0.08653846"
         offset="1"
         id="stop4283-2-3" />
    </linearGradient>
    <linearGradient
       inkscape:collect="always"
       xlink:href="#linearGradient5125-7"
       id="linearGradient5119-2"
       gradientUnits="userSpaceOnUse"
       x1="1072.7375"
       y1="1165.5472"
       x2="1265.1232"
       y2="1168.2797" />
    <linearGradient
       id="linearGradient5125-7"
       inkscape:collect="always">
      <stop
         id="stop5127-2"
         offset="0"
         style="stop-color:#767676;stop-opacity:1" />
      <stop
         id="stop5129-1"
         offset="1"
         style="stop-color:#404040;stop-opacity:1" />
    </linearGradient>
  </defs>
  <rect
     style="fill:#dde4d7;fill-opacity:1;fill-rule:evenodd;stroke:none"
     id="rect3309"
     y="0"
     x="0"
     height="182.19084"
     width="308" />
  <g
     id="bk_red"
     transform="matrix(0.1669731,0,0,0.1669731,81.534182,134.6522)">
    <path
       transform="matrix(1.0676765,0,0,1.0612249,1081.3023,-643.42169)"
       d="m 156,118.36218 c 0,113.77066 -92.229342,206 -206,206 -113.77066,0 -206,-92.22934 -206,-206 0,-113.7706558 92.22934,-205.999997 206,-205.999997 113.770658,0 206,92.2293412 206,205.999997 z"
       sodipodi:ry="206"
       sodipodi:rx="206"
       sodipodi:cy="118.36218"
       sodipodi:cx="-50"
       id="path4273-59"
       style="opacity:0.35096154;fill:url(#linearGradient5117);fill-opacity:1;fill-rule:evenodd;stroke:none"
       sodipodi:type="arc" />
    <path
       transform="matrix(0.98347651,0,0,0.98347651,999.12909,-821.7928)"
       d="m 240,304.36218 c 0,119.29351 -96.70649,216 -216,216 -119.293506,0 -216,-96.70649 -216,-216 0,-119.2935 96.706494,-215.999997 216,-215.999997 119.29351,0 216,96.706497 216,215.999997 z"
       sodipodi:ry="216"
       sodipodi:rx="216"
       sodipodi:cy="304.36218"
       sodipodi:cx="24"
       id="path4275-91"
       style="fill:#cd4f3b;fill-opacity:1;fill-rule:evenodd;stroke:none"
       sodipodi:type="arc" />
    <path
       transform="matrix(1.4769264,0,0,1.4769264,-677.46054,-2245.905)"
       d="m 1288.3485,1166.9135 c 0,75.7617 -61.417,137.1787 -137.1787,137.1787 -75.7617,0 -137.1787,-61.417 -137.1787,-137.1787 0,-75.7618 61.417,-137.1788 137.1787,-137.1788 75.7617,0 137.1787,61.417 137.1787,137.1788 z"
       sodipodi:ry="137.17871"
       sodipodi:rx="137.17871"
       sodipodi:cy="1166.9135"
       sodipodi:cx="1151.1698"
       id="path4295-1"
       style="fill:url(#linearGradient5119);fill-opacity:1;stroke:none"
       sodipodi:type="arc" />
    <path
       id="path4297-77"
       d="m 891.65282,-639.08388 c -27.9487,0 -50.60036,52.48062 -50.60036,117.25124 0,64.77061 22.65166,117.2788 50.60036,117.2788 5.2237,0 10.2625,-1.83244 15.003,-5.23812 -16.817,-21.16392 -28.2355,-62.30652 -28.2355,-109.58703 0,-49.57894 12.5494,-92.38724 30.7205,-112.50936 -5.4516,-4.6543 -11.3392,-7.19553 -17.488,-7.19553 z"
       style="opacity:0.4567308;fill:#ffffff;fill-opacity:1;stroke:none" />
  </g>
  <path
     d="m 13.202762,44.626789 19.023436,0 0,-6.679686 -14.335938,0 0,-2.85156 c 1.757805,-3.13801 3.372387,-6.18488 4.84375,-9.14063 l -8.046875,0 0,-2.89062 9.453125,0 c 1.015612,-2.10935 1.953112,-4.16664 2.8125,-6.17188 l 2.929688,0.89844 c -0.859392,1.84899 -1.686214,3.6068 -2.480469,5.27344 l 21.972656,0 0,2.89062 -23.378906,0 c -1.718762,3.52867 -3.287771,6.58856 -4.707031,9.17969 l 10.9375,0 0,-7.53906 3.046875,0 0,7.53906 11.289062,0 0,2.8125 -11.289062,0 0,6.679686 15.585937,0 0,2.89062 -15.585937,0 0,8.203133 -3.046875,0 0,-8.203133 -19.023436,0 0,-2.89062"
     id="che"
     style="font-size:40px;font-style:normal;font-weight:normal;fill:#ffffff;fill-opacity:1;stroke:none;font-family:Bitstream Vera Sans" />
  <path
     d="m 121.45761,31.697102 c 3.02081,-4.19269 5.3906,-8.98435 7.10937,-14.375 l 2.89063,0.9375 c -0.52086,1.38023 -1.04169,2.70836 -1.5625,3.98437 l 15.15625,0 c -0.0782,7.50002 -0.16931,12.99481 -0.27344,16.48438 -0.1042,5.494792 -2.56514,8.268232 -7.38281,8.320312 -1.53649,0 -3.05992,-0.0391 -4.57031,-0.11719 -0.13024,-1.14583 -0.32555,-2.18749 -0.58594,-3.125 2.13539,0.23438 3.8281,0.35157 5.07812,0.35156 2.8906,-0.10416 4.38799,-2.0052 4.49219,-5.703122 0.10413,-3.17707 0.18226,-7.66925 0.23438,-13.47656 l -13.35938,0 c -0.78127,1.69273 -1.58856,3.25523 -2.42187,4.6875 l 11.71875,0 0,11.289062 -10.39063,0 0,7.73437 c -2e-5,2.16146 0.87238,3.24219 2.61719,3.24219 l 9.45312,0 c 2.29164,0 3.68486,-0.79427 4.17969,-2.38281 0.39059,-1.22396 0.72913,-2.70833 1.01563,-4.45313 0.91142,0.46876 1.87496,0.8724 2.89062,1.21094 -0.33858,1.66667 -0.71618,3.125 -1.13281,4.375 -0.80733,2.65625 -2.77348,3.98437 -5.89844,3.98438 l -11.09375,0 c -3.25523,-1e-5 -4.88283,-1.75782 -4.88281,-5.27344 l 0,-17.148442 c -0.33856,0.49481 -0.66408,0.96356 -0.97656,1.40625 -0.80731,-0.75519 -1.57554,-1.40623 -2.30469,-1.95312 m -6.875,-13.98438 2.73438,0 c -1e-5,12.78648 -0.31251,20.4948 -0.9375,23.125002 l 1.71875,-1.05469 c 1.43228,2.29168 2.95571,5.05209 4.57031,8.28125 l -2.5,1.60157 c -1.17189,-2.68229 -2.48699,-5.3125 -3.94531,-7.89063 -0.96355,5.23438 -2.81251,9.73958 -5.54688,13.51563 -0.83333,-1.06772 -1.51042,-1.86199 -2.03125,-2.38282 3.28125,-4.73958 5.1302,-10.24738 5.54688,-16.523432 0.26041,-2.3177 0.39061,-8.54165 0.39062,-18.67188 m 20.58594,20.58594 0,-5.97656 -7.57813,0 0,5.97656 7.57813,0 m -26.48438,-13.16406 2.38282,-0.66407 c 0.83333,3.33336 1.54947,6.34117 2.14843,9.02344 l -2.69531,0.9375 c -0.49479,-3.02081 -1.10677,-6.11977 -1.83594,-9.29687 m 9.41407,8.08593 c 0.5729,-1.71873 1.39321,-4.75258 2.46093,-9.10156 l 2.53906,0.89844 c -0.8073,3.09898 -1.70574,6.13283 -2.69531,9.10156 l -2.30468,-0.89844"
     id="pao"
     style="font-size:40px;font-style:normal;font-weight:normal;fill:#ffffff;fill-opacity:1;stroke:none;font-family:Bitstream Vera Sans" />
  <path
     d="m 179.54543,156.35995 -2.89063,0 0,-25.70312 8.78906,0 0,-7.07031 2.92969,0 0,7.07031 8.90625,0 0,20.35156 c -4e-5,3.20313 -1.3542,4.80469 -4.0625,4.80469 -1.01566,0 -2.22659,-0.0391 -3.63281,-0.11719 -0.15628,-0.98958 -0.35159,-2.01822 -0.58594,-3.08594 1.4583,0.1823 2.52602,0.27345 3.20313,0.27344 1.4583,0.0781 2.18746,-0.80728 2.1875,-2.65625 l 0,-16.67969 -6.01563,0 0,28.59375 -2.92969,0 0,-28.59375 -5.89842,0 0,22.8125 m -9.80469,-32.5 2.92969,0 0,20.78125 c -0.0261,6.87501 -2.2396,12.77344 -6.64063,17.69532 -0.88542,-0.91147 -1.73177,-1.60157 -2.53906,-2.07032 4.16666,-4.53124 6.24999,-9.83072 6.25,-15.89843 l 0,-20.50782 m -7.30469,3.125 2.89063,0 0,25.19532 -2.89063,0 0,-25.19532"
     id="shuai"
     style="font-size:40px;font-style:normal;font-weight:normal;fill:#ffffff;fill-opacity:1;stroke:none;font-family:Bitstream Vera Sans" />
  <path
     d="m 23.847291,133.58655 c 4.29686,-2.83852 7.89061,-6.19789 10.78125,-10.07813 l 2.73438,1.40625 c -0.98961,1.19795 -2.005229,2.34378 -3.04688,3.4375 l 15.42969,0 0,2.69531 c -3.64587,5.33857 -11.549509,9.58335 -23.71094,12.73438 -0.39064,-0.85937 -0.83334,-1.77082 -1.32812,-2.73438 3.56769,-0.75519 6.79685,-1.70571 9.6875,-2.85156 -1.01565,-0.93748 -2.317729,-1.99217 -3.90625,-3.16406 l 1.95312,-1.875 c 1.90102,1.48439 3.46352,2.77346 4.6875,3.86718 3.59372,-1.69269 6.56247,-3.6979 8.90625,-6.01562 l -14.41406,0 c -1.71877,1.58857 -3.68491,3.19013 -5.89844,4.80469 -0.54689,-0.70311 -1.17189,-1.44529 -1.875,-2.22657 m 0.70313,11.36718 18.32031,0 0,-4.88281 3.125,0 0,4.88281 5.70312,0 0,2.73438 -5.70312,0 0,9.10156 c -3e-5,3.25521 -1.56253,4.88281 -4.6875,4.88281 -1.25003,0 -3.08596,-0.013 -5.50781,-0.0391 -0.15628,-0.96353 -0.36461,-2.07031 -0.625,-3.32031 2.161431,0.20833 3.919241,0.3125 5.27343,0.3125 1.61456,0 2.42185,-0.88542 2.42188,-2.65625 l 0,-8.28125 -18.32031,0 0,-2.73437 m -4.882819,-20.89844 3.046879,0 0,38.35937 -3.04688,0 0,-15.07812 c -1.74479,1.92709 -3.5026,3.95833 -5.27343,6.09375 l -2.03125,-2.85157 c 2.21354,-2.05728 4.64843,-4.59634 7.30468,-7.61718 l 0,-18.90625 m -6.95312,7.22656 2.53906,-1.44531 c 1.09375,1.87502 2.35677,4.21877 3.78906,7.03125 l -2.85156,1.60156 c -1.40625,-3.17706 -2.5651,-5.57289 -3.47656,-7.1875 m 16.21094,18.90625 2.1875,-1.75781 c 1.9531,2.00521 3.723931,3.93229 5.3125,5.78125 l -2.46094,1.99218 c -1.66669,-2.10937 -3.34637,-4.11457 -5.03906,-6.01562"
     id="jiang"
     style="font-size:40px;font-style:normal;font-weight:normal;fill:#ffffff;fill-opacity:1;stroke:none;font-family:Bitstream Vera Sans" />
  <path
     d="m 126.18417,126.34042 20.54687,0 0,35.70313 -2.96875,0 0,-2.65625 -14.60937,0 0,2.65625 -2.96875,0 0,-35.70313 m -16.52343,21.75782 c 2.8776,-4.01041 5.03255,-8.61978 6.46484,-13.82813 l -5.99609,0 0,-2.61719 6.05469,0 0,-7.77343 2.85156,0 0,7.77343 5.70313,0 0,2.61719 -5.70313,0 0,6.79688 1.5625,-1.60157 c 1.79686,1.74481 3.45051,3.4245 4.96093,5.03907 l -2.10938,2.07031 c -1.43229,-1.6927 -2.90364,-3.33983 -4.41406,-4.94141 l 0,20.33203 -2.85156,0 0,-20.33203 c -1.40626,3.8672 -3.11198,7.15496 -5.11719,9.86328 -0.39063,-1.11978 -0.85938,-2.25259 -1.40625,-3.39843 m 19.49219,8.63281 14.60937,0 0,-7.57813 -14.60937,0 0,7.57813 m 14.60937,-27.73438 -14.60937,0 0,7.5 14.60937,0 0,-7.5 m -14.60937,17.57813 14.60937,0 0,-7.5 -14.60937,0 0,7.5"
     id="red_xiang"
     style="font-size:40px;font-style:normal;font-weight:normal;fill:#ffffff;fill-opacity:1;stroke:none;font-family:Bitstream Vera Sans" />
  <path
     d="m 142.62948,89.687049 1.5625,2.617187 c -2.30472,0.8073 -4.70706,1.64063 -7.20703,2.5 2.0833,4.67448 5.6445,7.825524 10.6836,9.453124 -0.85942,1.06771 -1.56254,1.9401 -2.10938,2.61719 -4.84378,-2.05729 -8.52867,-5.80078 -11.05469,-11.230474 -0.71617,0.23438 -1.43231,0.47527 -2.14843,0.72266 0.46872,1.4974 0.7031,3.20313 0.70312,5.117184 -2e-5,4.66146 -2.22658,6.99219 -6.67969,6.99219 -1.6146,0 -3.33334,-0.0261 -5.15625,-0.0781 -0.10418,-0.65105 -0.32553,-1.65365 -0.66406,-3.00782 1.90103,0.20834 3.65884,0.3125 5.27344,0.3125 2.94269,0 4.41404,-1.47135 4.41406,-4.41406 -2e-5,-1.14583 -0.0977,-2.174474 -0.29297,-3.085944 -3.88022,3.789074 -10.43621,7.018234 -19.66797,9.687504 -0.46875,-0.78125 -0.98958,-1.69271 -1.5625,-2.73437 8.97135,-2.27865 15.74217,-5.436204 20.3125,-9.472664 -0.32554,-0.61197 -0.73569,-1.23046 -1.23046,-1.85547 -3.60679,3.20314 -9.26434,5.95053 -16.97266,8.242194 -0.41667,-0.7552 -0.95052,-1.64062 -1.60156,-2.656254 7.49999,-1.96614 13.15753,-4.42707 16.97265,-7.382811 -0.45574,-0.46874 -0.95705,-0.93749 -1.5039,-1.406246 -3.1771,2.187506 -7.98178,4.075527 -14.41407,5.664057 -0.33854,-0.72916 -0.84635,-1.65364 -1.52343,-2.77344 7.30468,-1.367171 12.33722,-3.190086 15.09765,-5.46875 l -8.30078,0 0,1.210943 -2.69531,0 0,-7.539063 c -0.89844,0.612 -1.83594,1.22398 -2.8125,1.83594 -0.33854,-0.85936 -0.78125,-1.71873 -1.32813,-2.57813 5.44271,-3.07289 9.71354,-6.7057 12.8125,-10.89844 l 3.51563,0.42969 c -0.69012,1.00264 -1.49741,2.00524 -2.42188,3.00781 l 16.09375,0 0,2.30469 -3.80859,3.4375 9.66797,0 0,9.687503 -2.69531,0 0,-0.898443 -14.29688,0 c -0.28648,0.351583 -0.612,0.696633 -0.97656,1.035163 2.12237,1.6146 3.7044,3.307296 4.74609,5.078127 4.2057,-1.354161 7.96221,-2.845041 11.26953,-4.472657 m -7.96875,-13.750003 -14.43359,0 c -1.18491,1.09378 -2.50652,2.20055 -3.96484,3.32031 l 14.9414,0 3.45703,-3.32031 m 7.22657,5.85937 -11.36719,0 c -0.33856,1.39325 -0.76825,2.63023 -1.28906,3.71094 l 12.65625,0 0,-3.71094 m -26.32813,3.71094 10.46875,0 c 0.638,-1.05467 1.13279,-2.29165 1.48438,-3.71094 l -11.95313,0 0,3.71094"
     id="black_xiang"
     style="font-size:40px;font-style:normal;font-weight:normal;fill:#ffffff;fill-opacity:1;stroke:none;font-family:Bitstream Vera Sans" />
  <path
     d="m 71.925827,157.47324 10.78125,0 0,-18.125 -11.875,0 0,-2.8125 11.875,0 0,-12.07031 3.125,0 0,12.07031 11.835935,0 0,2.8125 -11.835935,0 0,18.125 10.89844,0 0,2.8125 -24.80469,0 0,-2.8125 m -13.08594,-14.17969 c 4.0625,-5.20831 7.36979,-11.66664 9.92188,-19.375 l 3.04687,0.70313 c -1.32814,3.61982 -2.7474,6.97919 -4.25781,10.07812 l 0,27.30469 -2.96875,0 0,-21.79687 c -1.38021,2.34376 -2.83855,4.50522 -4.375,6.48437 -0.39063,-1.11978 -0.84636,-2.25259 -1.36719,-3.39844"
     id="red_shi"
     style="font-size:40px;font-style:normal;font-weight:normal;fill:#ffffff;fill-opacity:1;stroke:none;font-family:Bitstream Vera Sans" />
  <path
     d="m 163.54934,50.915853 14.57031,0 0,-16.835938 -17.34375,0 0,-3.242191 17.34375,0 0,-12.26562 3.51563,0 0,12.26562 17.30468,0 0,3.242191 -17.30468,0 0,16.835938 14.57031,0 0,3.125 -32.65625,0 0,-3.125"
     id="black_shi"
     style="font-size:40px;font-style:normal;font-weight:normal;fill:#ffffff;fill-opacity:1;stroke:none;font-family:Bitstream Vera Sans" />
  <path
     d="m 59.425827,95.507366 17.26563,0 0,-3.98437 3.125,0 0,3.98437 17.265615,0 0,2.96875 -17.265615,0 0,10.195314 -3.125,0 0,-10.195314 -17.26563,0 0,-2.96875 m 1.79688,-20.27344 16.13281,0 c -0.65106,-1.17184 -1.49742,-2.52601 -2.53906,-4.0625 l 2.77343,-1.28906 c 1.06769,1.43233 2.00519,2.83857 2.8125,4.21875 l -2.26562,1.13281 17.14844,0 0,2.89063 -34.0625,0 0,-2.89063 m 17.26562,14.29688 c 3.56769,-3.20311 5.96352,-6.64061 7.1875,-10.3125 l 2.96875,0 c -0.33857,1.1719 -0.75524,2.30471 -1.25,3.39844 2.21351,1.90106 4.92184,4.45314 8.125,7.65625 l -2.26562,2.1875 c -2.10941,-2.39582 -4.50524,-4.84374 -7.1875,-7.34375 -1.38024,2.3698 -3.16409,4.54428 -5.35157,6.52343 -0.80731,-0.91144 -1.5495,-1.61457 -2.22656,-2.10937 m -17.34375,0.89844 c 4.06249,-3.35936 6.70572,-7.12238 7.92969,-11.28907 l 3.16406,0 c -0.44272,1.35419 -0.9896,2.6693 -1.64062,3.94532 2.10936,1.77085 4.15363,3.58074 6.13281,5.42968 l -2.34375,2.26563 c -1.84897,-2.1354 -3.5547,-3.90623 -5.11719,-5.3125 -1.56251,2.52606 -3.54167,4.90887 -5.9375,7.14844 -0.72917,-0.83333 -1.45834,-1.56249 -2.1875,-2.1875"
     id="zu"
     style="font-size:40px;font-style:normal;font-weight:normal;fill:#ffffff;fill-opacity:1;stroke:none;font-family:Bitstream Vera Sans" />
  <path
     d="m 12.929324,93.437046 6.757813,0 0,-21.132805 c 9.453108,-0.13018 17.90362,-0.74215 25.351562,-1.83594 l 1.054688,3.16407 c -7.291694,0.75523 -15.052102,1.26305 -23.28125,1.52343 l 0,6.32813 26.25,0 0,2.8125 -8.75,0 0,9.140615 10.820312,0 0,2.8125 -38.203125,0 0,-2.8125 m 9.882813,0 14.375,0 0,-9.140615 -14.375,0 0,9.140615 m 2.34375,3.82813 2.1875,2.26562 c -4.401053,3.541674 -8.528653,6.393244 -12.382813,8.554694 -0.572919,-0.96354 -1.210939,-1.83594 -1.914062,-2.61719 4.505203,-2.3177 8.541657,-5.05208 12.109375,-8.203124 m 11.015625,2.26562 1.875,-2.14843 c 3.958303,2.36979 8.03382,5.013024 12.226562,7.929684 l -2.03125,2.53907 c -4.010448,-2.91667 -8.033882,-5.69011 -12.070312,-8.320324"
     id="bing"
     style="font-size:40px;font-style:normal;font-weight:normal;fill:#ffffff;fill-opacity:1;stroke:none;font-family:Bitstream Vera Sans" />
  <path
     d="m 69.953172,23.415849 -1.01563,10.89844 17.14844,0 1.25,-13.28125 -24.02344,0 0,-2.85156 27.46094,0 -1.5625,16.13281 7.38281,0 c -0.20837,6.067715 -0.44274,10.729166 -0.70312,13.984375 -0.23441,4.08853 -2.56514,6.132804 -6.99219,6.132813 -2.68232,-1e-5 -5.22138,-0.0391 -7.61719,-0.11719 -0.13023,-0.937503 -0.31252,-2.057293 -0.54687,-3.359373 2.99477,0.23437 5.59893,0.35156 7.8125,0.35156 2.55205,0 3.93226,-1.19792 4.14062,-3.59375 0.23434,-2.65625 0.41664,-6.17187 0.54688,-10.546875 l -27.8125,0 1.32812,-13.75 3.20313,0 m -10.03906,19.570315 29.33593,0 0,2.85156 -29.33593,0 0,-2.85156"
     id="ma"
     style="font-size:40px;font-style:normal;font-weight:normal;fill:#ffffff;fill-opacity:1;stroke:none;font-family:Bitstream Vera Sans" />
  <g
     id="bk_black"
     transform="matrix(0.1669731,0,0,0.1669731,82.948592,217.14917)">
    <path
       transform="matrix(1.0676765,0,0,1.0612249,1081.3023,-643.42169)"
       d="m 156,118.36218 c 0,113.77066 -92.229342,206 -206,206 -113.77066,0 -206,-92.22934 -206,-206 0,-113.7706558 92.22934,-205.999997 206,-205.999997 113.770658,0 206,92.2293412 206,205.999997 z"
       sodipodi:ry="206"
       sodipodi:rx="206"
       sodipodi:cy="118.36218"
       sodipodi:cx="-50"
       id="path4273-59-4"
       style="opacity:0.35096154;fill:url(#linearGradient5117-0);fill-opacity:1;fill-rule:evenodd;stroke:none"
       sodipodi:type="arc" />
    <path
       transform="matrix(0.98347651,0,0,0.98347651,999.12909,-821.7928)"
       d="m 240,304.36218 c 0,119.29351 -96.70649,216 -216,216 -119.293506,0 -216,-96.70649 -216,-216 0,-119.2935 96.706494,-215.999997 216,-215.999997 119.29351,0 216,96.706497 216,215.999997 z"
       sodipodi:ry="216"
       sodipodi:rx="216"
       sodipodi:cy="304.36218"
       sodipodi:cx="24"
       id="path4275-91-9"
       style="fill:#5e5e5e;fill-opacity:1;fill-rule:evenodd;stroke:none"
       sodipodi:type="arc" />
    <path
       transform="matrix(1.4769264,0,0,1.4769264,-677.46054,-2245.905)"
       d="m 1288.3485,1166.9135 c 0,75.7617 -61.417,137.1787 -137.1787,137.1787 -75.7617,0 -137.1787,-61.417 -137.1787,-137.1787 0,-75.7618 61.417,-137.1788 137.1787,-137.1788 75.7617,0 137.1787,61.417 137.1787,137.1788 z"
       sodipodi:ry="137.17871"
       sodipodi:rx="137.17871"
       sodipodi:cy="1166.9135"
       sodipodi:cx="1151.1698"
       id="path4295-1-4"
       style="fill:url(#linearGradient5119-2);fill-opacity:1;stroke:none"
       sodipodi:type="arc" />
    <path
       id="path4297-77-1"
       d="m 891.65282,-639.08388 c -27.9487,0 -50.60036,52.48062 -50.60036,117.25124 0,64.77061 22.65166,117.2788 50.60036,117.2788 5.2237,0 10.2625,-1.83244 15.003,-5.23812 -16.817,-21.16392 -28.2355,-62.30652 -28.2355,-109.58703 0,-49.57894 12.5494,-92.38724 30.7205,-112.50936 -5.4516,-4.6543 -11.3392,-7.19553 -17.488,-7.19553 z"
       style="opacity:0.4567308;fill:#ffffff;fill-opacity:1;stroke:none" />
  </g>
</svg>
